<svg xmlns="http://www.w3.org/2000/svg" xmlns:xlink="http://www.w3.org/1999/xlink" width="46" height="40" viewBox="0 0 46 40">
    <defs>
        <path id="a" d="M0 .046h45.653v30.037H0z"/>
    </defs>
    <g fill="none" fill-rule="evenodd">
        <g transform="translate(0 .863)">
            <mask id="b" fill="#fff">
                <use xlink:href="#a"/>
            </mask>
            <path fill="#FFF" d="M11.948 9.078l3.47 13.974h24.53l3.46-13.974h-31.46zm-.49-2.022h9.168c7.923 0 15.844 0 23.767.002 1.075 0 1.442.484 1.176 1.556-1.269 5.13-2.54 10.258-3.816 15.387-.223.897-.459 1.076-1.386 1.077l-23.582-.001h-.835c.342.965.618 1.92 1.404 2.502.427.315 1.063.477 1.606.48 6.019.033 12.038.02 18.058.02.848 0 1.697-.005 2.543 0 .718.006 1.164.407 1.155 1.019-.01.589-.44.982-1.127.982-6.97.002-13.941.007-20.912-.006-1.74-.002-3.06-.848-3.749-2.417-.631-1.435-1.118-2.952-1.506-4.474-1.497-5.866-2.913-11.752-4.405-17.619-.216-.854-.636-1.667-1.047-2.454-.386-.738-1.06-1.067-1.904-1.06-1.614.014-3.228.005-4.841.002C.449 2.05-.003 1.673 0 1.042.003.414.45.052 1.24.05 2.792.047 4.343.062 5.894.046 7.73.027 9.131.812 9.897 2.474c.576 1.255.938 2.611 1.389 3.924.068.196.105.402.171.658z" mask="url(#b)"/>
        </g>
        <path fill="#FFF" d="M21.847 35.96c.005-1.092-.879-1.998-1.96-2.009a1.99 1.99 0 0 0-2.01 2.02 2 2 0 0 0 1.988 1.98c1.079-.002 1.976-.904 1.982-1.99m-5.958-.067c.013-2.17 1.817-3.958 3.98-3.947 2.201.01 3.975 1.812 3.965 4.027-.012 2.21-1.812 3.995-4.012 3.98-2.19-.016-3.947-1.83-3.933-4.06M35.73 33.95c-1.08.01-1.966.915-1.963 2.006.003 1.092.893 1.99 1.976 1.992a1.996 1.996 0 0 0 1.993-2.037 2 2 0 0 0-2.006-1.962m-3.95 1.98a3.984 3.984 0 0 1 4.006-3.982c2.19.013 3.952 1.827 3.94 4.053-.014 2.167-1.821 3.963-3.979 3.954-2.2-.008-3.975-1.81-3.967-4.025"/>
    </g>
</svg>
